<?xml version="1.0" standalone="no"?>
<!DOCTYPE svg PUBLIC "-//W3C//DTD SVG 20010904//EN"
 "http://www.w3.org/TR/2001/REC-SVG-20010904/DTD/svg10.dtd">
<svg version="1.0" xmlns="http://www.w3.org/2000/svg"
 width="328.000000pt" height="328.000000pt" viewBox="0 0 328.000000 328.000000"
 preserveAspectRatio="xMidYMid meet">
<metadata>
Created by potrace 1.11, written by Peter Selinger 2001-2013
</metadata>
<g transform="translate(0.000000,328.000000) scale(0.100000,-0.100000)"
fill="#000000" stroke="none">
<path d="M1465 3120 c-141 -21 -186 -31 -290 -66 -163 -54 -327 -141 -450
-239 -92 -73 -207 -187 -198 -196 7 -5 85 -25 238 -59 39 -9 90 -18 150 -27
17 -2 55 -8 85 -13 30 -5 84 -12 120 -16 36 -3 73 -8 82 -9 42 -8 288 -18 438
-18 201 1 401 12 498 28 13 2 53 7 90 11 37 3 69 8 72 9 3 2 26 6 50 10 66 9
196 34 265 52 33 8 70 17 82 19 69 13 68 15 -9 91 -88 87 -129 120 -233 188
-89 58 -189 110 -280 144 -33 13 -69 27 -80 31 -23 10 -130 35 -190 46 -22 4
-49 9 -60 11 -35 9 -328 10 -380 3z"/>
<path d="M326 2348 c-68 -103 -154 -364 -174 -523 -9 -79 -9 -324 1 -400 26
-202 120 -446 240 -625 181 -270 450 -479 752 -583 89 -30 135 -42 314 -76
l44 -9 -6 107 c-4 58 -9 120 -11 138 -63 431 -303 936 -689 1452 -56 75 -112
147 -123 161 -12 14 -50 59 -84 100 -34 41 -96 113 -138 159 -42 46 -85 93
-94 103 -16 19 -17 19 -32 -4z"/>
<path d="M2920 2347 c-85 -79 -364 -412 -467 -557 -63 -88 -240 -356 -259
-390 -10 -19 -24 -42 -31 -50 -23 -30 -153 -287 -197 -390 -103 -242 -172
-506 -182 -698 -3 -53 -7 -103 -9 -109 -15 -46 351 45 517 128 298 149 540
386 682 666 76 152 132 328 153 482 10 72 10 308 1 386 -21 167 -74 339 -154
497 l-29 58 -25 -23z"/>
<path d="M810 2266 c0 -3 51 -70 113 -148 312 -396 551 -799 683 -1148 30 -79
33 -83 42 -60 108 259 143 334 218 472 148 271 314 516 528 782 l87 108 -46
-7 c-26 -3 -54 -8 -63 -10 -10 -1 -42 -6 -72 -10 -30 -3 -66 -8 -80 -10 -14
-2 -54 -6 -90 -10 -36 -3 -81 -8 -100 -10 -139 -16 -513 -22 -670 -11 -125 9
-225 18 -243 22 -10 2 -46 6 -80 9 -61 6 -160 20 -204 30 -13 3 -23 3 -23 1z"/>
</g>
</svg>
